<svg width="1626" height="1536" viewBox="0 0 1626 1536" fill="none" xmlns="http://www.w3.org/2000/svg">
<path d="M812.512 488.006C776.226 474.357 801.048 425.149 832.819 442.761C852.062 453.424 848.435 480.519 827.939 487.482C827.502 487.637 827.284 487.943 827.284 488.399V553.107C827.283 553.283 827.35 553.453 827.469 553.581C827.589 553.708 827.752 553.784 827.924 553.791L849.251 555.073C849.697 555.093 849.974 554.884 850.081 554.447C852.674 543.123 855.252 531.775 857.816 520.403C859.229 514.154 871.247 514.824 869.004 525.72C866.867 536.063 864.697 546.381 862.492 556.676C862.405 557.113 862.575 557.38 863.002 557.477L880.497 561.847C880.723 561.898 880.959 561.868 881.163 561.761C881.366 561.654 881.523 561.477 881.604 561.264C885.091 551.999 888.597 542.759 892.122 533.543C894.176 528.153 896.812 523.608 903.134 527.614C905.786 529.289 905.582 532.188 904.533 535.014C900.707 545.328 896.919 555.636 893.171 565.94C893.119 566.081 893.125 566.237 893.188 566.375C893.25 566.513 893.364 566.624 893.506 566.683L913.987 575.103C914.285 575.226 914.617 575.242 914.924 575.146C915.23 575.05 915.492 574.849 915.662 574.578C925.694 559.089 935.624 543.997 945.452 529.304C946.578 527.614 947.928 526.123 949.502 524.832C949.861 524.54 949.895 524.215 949.604 523.856C942.135 514.445 940.781 504.962 945.539 495.406C960.573 465.252 1006.33 489.186 989.969 518.102C984.055 528.561 974.45 532.713 961.155 530.557C960.791 530.5 960.419 530.551 960.085 530.701C959.751 530.851 959.47 531.094 959.276 531.402L927.301 581.702C926.952 582.246 927.054 582.697 927.607 583.057L946.865 595.351C947.273 595.61 947.762 595.709 948.238 595.628C948.714 595.548 949.144 595.293 949.443 594.914C956.542 585.98 963.671 577.317 970.828 568.926C975.227 563.77 984.142 570.136 979.073 576.793C972.217 585.824 965.404 594.895 958.635 604.004C958.305 604.451 958.344 604.859 958.752 605.228L971.935 617.216C972.323 617.566 972.707 617.561 973.086 617.202C980.903 609.773 988.75 602.402 996.626 595.089C1002.77 589.379 1010.2 596.939 1005.41 602.038C997.913 609.991 989.945 618.1 981.506 626.365C980.923 626.938 980.879 627.545 981.374 628.185L992.824 642.986C993.033 643.259 993.339 643.44 993.679 643.492C994.018 643.544 994.365 643.461 994.645 643.262C1003.2 637.202 1011.83 631.099 1020.53 624.952C1025.16 621.689 1030.39 621.951 1031.6 628.287C1031.69 628.773 1031.6 629.27 1031.33 629.671C1030.19 631.371 1028.84 632.842 1027.28 634.085C1018.76 640.844 1010.16 647.506 1001.49 654.071C1001.05 654.401 1000.96 654.809 1001.21 655.295L1010.55 672.586C1011.55 674.441 1012.95 674.824 1014.75 673.737L1063.17 644.355C1063.49 644.161 1063.55 643.908 1063.34 643.597C1057.15 633.74 1056.77 624.311 1062.22 615.308C1074.25 595.439 1104.92 601.367 1108.84 624.223C1112.11 643.364 1093.18 656.358 1075.55 651.609C1075.06 651.473 1074.59 651.551 1074.15 651.842C1055.75 664.283 1036.88 675.98 1017.56 686.935C1017.34 687.062 1017.17 687.26 1017.08 687.496C1016.99 687.731 1016.99 687.991 1017.06 688.231L1021.64 701.837C1021.82 702.381 1022.19 702.565 1022.73 702.39C1033.16 699.02 1043.54 695.617 1053.87 692.179C1057.38 691.004 1059.76 692.023 1061.03 695.238C1062.89 699.987 1057.79 702.856 1053.23 704.619C1044.1 708.144 1034.96 711.524 1025.83 714.758C1025.63 714.833 1025.46 714.978 1025.35 715.167C1025.24 715.356 1025.2 715.577 1025.24 715.792L1028.47 733.855C1028.49 733.975 1028.54 734.09 1028.6 734.193C1028.67 734.295 1028.75 734.384 1028.85 734.453C1028.95 734.522 1029.07 734.57 1029.19 734.595C1029.31 734.62 1029.43 734.621 1029.55 734.598C1039.09 732.782 1048.63 731.321 1058.14 730.213C1067.54 729.121 1069.05 739.624 1060.56 741.285C1050.69 743.207 1040.8 745.014 1030.87 746.703C1030.37 746.791 1030.12 747.092 1030.13 747.607L1030.61 765.553C1030.63 766.214 1030.97 766.549 1031.63 766.558L1089.45 767.083C1089.71 767.084 1089.96 767.005 1090.18 766.856C1090.39 766.708 1090.55 766.497 1090.64 766.253C1097.24 748.947 1120.56 750.054 1126.77 767.01C1126.93 767.457 1127.25 767.68 1127.73 767.68C1143.78 767.709 1159.82 767.709 1175.85 767.68C1178.25 767.68 1180.42 768.044 1182.82 768.496C1183.05 768.537 1183.27 768.631 1183.45 768.77C1183.64 768.909 1183.79 769.09 1183.89 769.297C1185.63 772.813 1185.21 776.017 1182.6 778.911C1182.48 779.049 1182.33 779.159 1182.16 779.235C1181.99 779.31 1181.8 779.349 1181.61 779.348H1152.81C1152.58 779.347 1152.35 779.435 1152.18 779.593C1152 779.752 1151.89 779.971 1151.87 780.208C1149.7 801.68 1133.62 816.028 1112.97 819.787C1112.44 819.884 1112.15 820.204 1112.11 820.748C1111.85 824.798 1113.29 831.047 1107.18 831.12C1102.51 831.178 1102.15 823.443 1101.73 820.253C1101.67 819.738 1101.39 819.422 1100.88 819.306C1094.18 817.684 1089.17 816.13 1085.84 814.644C1080.15 812.11 1077.46 820.792 1074.12 825.235C1074 825.402 1073.82 825.532 1073.63 825.611C1073.43 825.691 1073.21 825.717 1073 825.686C1070.1 825.24 1067.85 823.764 1066.26 821.258C1066.08 820.97 1065.97 820.639 1065.96 820.299C1065.95 819.959 1066.03 819.621 1066.18 819.321C1069.49 812.989 1073.75 807.953 1078.99 804.214C1083.21 801.199 1090.69 805.103 1095.06 806.633C1117.26 814.426 1135.77 802.262 1141.5 780.383C1141.53 780.261 1141.54 780.134 1141.51 780.01C1141.49 779.887 1141.44 779.77 1141.36 779.67C1141.28 779.57 1141.18 779.489 1141.07 779.433C1140.96 779.377 1140.84 779.348 1140.71 779.348H1127.15C1126.96 779.348 1126.78 779.397 1126.62 779.489C1126.46 779.58 1126.33 779.713 1126.23 779.873C1117.3 794.411 1098.95 795.125 1090.92 779.072C1090.71 778.635 1090.36 778.421 1089.87 778.431L1066.9 778.824C1066.45 778.834 1066.13 779.042 1065.94 779.45L1065.02 781.344C1064.94 781.51 1064.82 781.65 1064.66 781.748C1064.51 781.847 1064.33 781.898 1064.14 781.898H1030.83C1030.63 781.896 1030.43 781.972 1030.28 782.109C1030.12 782.245 1030.02 782.435 1030 782.641L1027.9 800.092C1027.88 800.297 1027.93 800.503 1028.05 800.672C1028.17 800.841 1028.34 800.961 1028.54 801.01C1039.47 803.661 1055.08 805.453 1064.6 811.032C1064.79 811.151 1064.95 811.328 1065.04 811.538C1065.13 811.748 1065.15 811.979 1065.09 812.197C1064.31 815.329 1062.59 820.937 1058.16 820.136C1047.42 818.155 1036.74 815.795 1026.14 813.057C1025.64 812.93 1025.32 813.115 1025.16 813.61L1021.11 826.691C1020.96 827.177 1021.12 827.502 1021.61 827.667C1032.87 831.533 1044.06 835.553 1055.16 839.729C1060.23 841.652 1064.14 844.798 1059.82 850.261C1058.46 851.98 1056.38 852.398 1053.58 851.514C1041.85 847.804 1030.19 843.856 1018.59 839.671C1018.1 839.496 1017.74 839.646 1017.52 840.122L1013.87 847.61C1013.77 847.828 1013.75 848.075 1013.81 848.306C1013.88 848.536 1014.02 848.734 1014.22 848.863L1073.13 887.903C1073.53 888.174 1073.96 888.228 1074.41 888.063C1097.47 880.036 1118.98 903.679 1104.57 925.019C1095.9 937.839 1076.47 939.732 1065.41 927.977C1056.35 918.348 1057.65 908.646 1062.48 897.415C1062.69 896.929 1062.57 896.546 1062.13 896.264L974.892 839.044C973.666 838.24 972.789 837.002 972.436 835.579C972.082 834.157 972.278 832.653 972.984 831.368C975.383 827.007 977.451 822.108 979.189 816.669C1001.35 747.65 978.607 672.615 919.785 629.628C874.175 596.298 813.838 586.363 760.013 607.908C673.571 642.52 632.434 735.938 663.476 823.705C665.312 828.862 672.1 834.703 664.409 839.7C635.682 858.394 607.136 877.361 578.769 896.599C578.341 896.881 578.234 897.255 578.448 897.721C584.605 911.482 582.541 922.504 572.257 930.788C560.676 940.126 543.735 936.411 536.233 924.539C522.612 903.023 544.39 879.672 567.202 888.019C567.415 888.096 567.643 888.121 567.868 888.093C568.093 888.066 568.309 887.985 568.499 887.859L626.286 848.732C626.83 848.363 626.961 847.882 626.68 847.289L623.388 840.457C623.29 840.256 623.121 840.098 622.915 840.012C622.708 839.926 622.478 839.919 622.266 839.991C604.552 846.216 592.544 850.295 586.241 852.228C584.27 852.83 582.609 852.286 581.26 850.596C576.962 845.206 580.371 842.06 585.557 840.151C596.375 836.15 607.233 832.232 618.129 828.396C618.353 828.315 618.539 828.156 618.652 827.949C618.765 827.742 618.797 827.502 618.741 827.274L615.463 813.639C615.298 812.96 614.876 812.722 614.196 812.926C605.028 815.645 595.725 817.98 586.285 819.932C580.4 821.146 577.074 819.126 576.307 813.872C576.265 813.585 576.286 813.293 576.366 813.017C576.447 812.74 576.585 812.485 576.773 812.27C581.012 807.419 605.281 802.86 612.433 801.097C612.948 800.971 613.171 800.646 613.103 800.121L610.845 782.772C610.818 782.554 610.713 782.353 610.55 782.206C610.387 782.059 610.176 781.976 609.957 781.97C600.847 781.757 591.714 781.844 582.556 782.233C580.303 782.33 578.069 782.189 575.855 781.81C575.302 781.723 574.889 781.427 574.617 780.922L574.063 779.887C573.811 779.411 573.413 779.174 572.869 779.174L552.184 778.911C551.63 778.902 551.232 779.144 550.989 779.64C544.274 793.668 525.103 794.469 518.169 780.15C518.051 779.913 517.868 779.715 517.642 779.576C517.415 779.437 517.154 779.363 516.887 779.363L501.738 779.348C501.116 779.348 500.854 779.649 500.951 780.252C502.874 792.77 509.652 801.49 521.287 806.414C534.193 811.891 543.647 808.104 555.563 803.501C564.347 800.121 574.267 811.279 576.307 818.301C578.288 825.162 565.964 828.09 564.697 815.897C564.659 815.473 564.468 815.071 564.158 814.761C560.268 810.886 546.269 818.257 541.215 819.918C540.995 819.992 540.801 820.125 540.652 820.302C540.503 820.48 540.405 820.694 540.37 820.923C539.714 825.133 539.379 832.46 532.766 830.916C532.522 830.856 532.294 830.748 532.096 830.597C531.898 830.447 531.734 830.258 531.615 830.042C530.022 827.235 529.425 824.191 529.823 820.908C529.872 820.52 529.702 820.287 529.313 820.209C506.724 815.946 493.269 802.559 488.948 780.048C488.909 779.83 488.792 779.633 488.62 779.496C488.448 779.359 488.233 779.291 488.015 779.305C478.469 779.722 468.947 779.849 459.449 779.683C452.151 779.567 452.646 768.263 460.556 767.986C470.481 767.636 488.904 767.564 515.824 767.768C516.04 767.768 516.251 767.697 516.422 767.565C516.593 767.433 516.716 767.248 516.771 767.039C521.928 748.364 544.958 750.229 552.082 766.34C552.276 766.777 552.611 766.995 553.087 766.995L609.505 766.835C609.903 766.835 610.107 766.636 610.117 766.238L610.627 746.878C610.636 746.617 610.545 746.363 610.375 746.168C610.204 745.973 609.966 745.852 609.709 745.829C602.528 745.072 577.793 743.28 573.597 737.949C573.267 737.521 573.204 737.065 573.408 736.579L575.753 731.219C575.843 731.008 575.983 730.823 576.161 730.681C576.339 730.539 576.55 730.443 576.773 730.403C578.492 730.082 580.177 730.01 581.828 730.184C591.636 731.185 601.425 732.389 611.195 733.797C611.71 733.875 612.016 733.656 612.113 733.141L615.638 714.816C615.674 714.606 615.638 714.392 615.537 714.211C615.435 714.03 615.275 713.893 615.084 713.825C605.557 710.349 596.094 706.896 586.693 703.468C583.43 702.274 579.395 700.642 579.322 696.709C579.235 692.441 582.993 690.271 587.13 691.552C597.57 694.796 608.034 697.991 618.522 701.138C618.979 701.274 619.289 701.118 619.454 700.671L624.058 687.721C624.119 687.553 624.12 687.368 624.062 687.199C624.003 687.029 623.889 686.885 623.737 686.789L567.159 651.886C566.751 651.634 566.314 651.541 565.848 651.609C564.09 651.842 562.351 652.09 560.633 652.352C528.687 657.393 520.18 608.884 553.859 603.188C576.19 599.415 589.257 624.515 577.443 642.753C577.181 643.16 577.258 643.491 577.676 643.743C594.443 653.459 611.486 665.492 629.04 673.358C629.219 673.438 629.421 673.447 629.605 673.385C629.789 673.323 629.941 673.193 630.03 673.023L639.965 654.945C640.054 654.791 640.08 654.608 640.04 654.433C640 654.258 639.895 654.103 639.747 653.998C630.307 647.283 616.658 638.834 609.534 629.977C609.388 629.794 609.282 629.582 609.225 629.353C609.167 629.124 609.158 628.885 609.199 628.652C610.19 623.16 615.07 620.596 619.746 624.136C628.535 630.769 637.323 637.411 646.112 644.064C646.501 644.355 646.841 644.306 647.132 643.918L658.771 628.36C659.121 627.894 659.092 627.452 658.684 627.035C647.37 615.352 640.256 607.937 637.343 604.791C635.901 603.247 633.759 600.552 633.861 598.177C634.08 592.744 639.848 590.748 643.869 594.71C651.803 602.538 659.64 610.389 667.38 618.265C667.449 618.336 667.531 618.392 667.621 618.431C667.712 618.47 667.808 618.491 667.906 618.492C668.004 618.494 668.1 618.476 668.19 618.439C668.28 618.403 668.361 618.348 668.429 618.28L681.336 605.359C681.695 604.999 681.724 604.616 681.423 604.208C675.062 595.536 668.813 586.786 662.675 577.958C656.877 569.626 665.72 563.041 670.993 569.655C677.81 578.211 684.594 586.985 691.343 595.978C691.56 596.265 691.877 596.458 692.23 596.518C692.582 596.577 692.943 596.499 693.237 596.298L711.591 583.872C712.572 583.212 712.757 582.377 712.145 581.367L682.559 532.407C682.304 531.984 682.229 531.477 682.349 530.997C682.469 530.516 682.775 530.101 683.2 529.843L690.105 525.662C690.571 525.371 691.037 525.376 691.503 525.677C692.688 526.434 693.732 527.502 694.635 528.881C706.367 546.537 716.297 562.022 724.425 575.336C724.697 575.783 725.076 575.904 725.561 575.7L746.072 566.814C746.587 566.591 746.757 566.217 746.582 565.693C744.513 559.516 741.08 548.926 736.283 533.922C733.806 526.157 744.644 521.875 747.674 530.761C751.17 541.026 754.725 551.135 758.337 561.089C758.609 561.847 759.134 562.128 759.911 561.934L777.406 557.681C777.911 557.554 778.11 557.239 778.003 556.734C774.924 541.972 772.827 531.411 771.71 525.05C769.904 514.824 781.266 512.158 783.349 521.642C785.748 532.538 788.088 543.458 790.37 554.403C790.412 554.594 790.521 554.763 790.679 554.881C790.836 554.998 791.032 555.056 791.23 555.044L812.425 553.471C812.862 553.442 813.081 553.204 813.081 552.757V488.807C813.081 488.409 812.891 488.142 812.512 488.006ZM831.624 463.898C831.624 460.822 830.403 457.873 828.228 455.698C826.054 453.524 823.104 452.302 820.029 452.302C816.954 452.302 814.004 453.524 811.83 455.698C809.655 457.873 808.434 460.822 808.434 463.898C808.434 465.42 808.734 466.928 809.316 468.335C809.899 469.742 810.753 471.02 811.83 472.097C812.907 473.174 814.185 474.028 815.592 474.61C816.999 475.193 818.506 475.493 820.029 475.493C821.552 475.493 823.06 475.193 824.466 474.61C825.873 474.028 827.152 473.174 828.228 472.097C829.305 471.02 830.159 469.742 830.742 468.335C831.325 466.928 831.624 465.42 831.624 463.898ZM979.379 506.23C979.379 503.189 978.171 500.273 976.021 498.123C973.871 495.973 970.955 494.765 967.914 494.765C964.874 494.765 961.958 495.973 959.808 498.123C957.658 500.273 956.45 503.189 956.45 506.23C956.45 507.735 956.747 509.226 957.323 510.617C957.899 512.008 958.743 513.272 959.808 514.336C960.873 515.401 962.136 516.245 963.527 516.821C964.918 517.397 966.409 517.694 967.914 517.694C969.42 517.694 970.911 517.397 972.302 516.821C973.693 516.245 974.956 515.401 976.021 514.336C977.085 513.272 977.93 512.008 978.506 510.617C979.082 509.226 979.379 507.735 979.379 506.23ZM762.678 593.967C829.294 571.388 904.023 589.685 951.92 641.442C998.811 692.135 1012.93 765.189 987.624 830.61C987.381 831.241 987.556 831.717 988.148 832.038L1001.04 839.03C1001.63 839.35 1002.05 839.2 1002.28 838.578C1036.73 746.66 1005.85 646.249 920.557 595.453C827.269 539.894 711.854 569.553 653.833 660.16C621.071 711.305 616.497 776.202 635.974 832.97C636.925 835.757 637.761 837.971 638.479 839.613C638.683 840.079 639.004 840.176 639.441 839.904L652.012 831.994C652.459 831.722 652.604 831.334 652.449 830.829C650.769 825.478 649.181 820.097 647.686 814.688C621.887 721.896 671.168 624.981 762.678 593.967ZM568.936 627.734C568.936 624.647 567.709 621.687 565.527 619.504C563.344 617.321 560.384 616.095 557.297 616.095C554.21 616.095 551.249 617.321 549.067 619.504C546.884 621.687 545.658 624.647 545.658 627.734C545.658 630.821 546.884 633.781 549.067 635.964C551.249 638.147 554.21 639.373 557.297 639.373C560.384 639.373 563.344 638.147 565.527 635.964C567.709 633.781 568.936 630.821 568.936 627.734ZM1095.14 627.85C1095.14 624.783 1093.93 621.841 1091.76 619.672C1089.59 617.503 1086.64 616.284 1083.58 616.284C1080.51 616.284 1077.57 617.503 1075.4 619.672C1073.23 621.841 1072.01 624.783 1072.01 627.85C1072.01 630.918 1073.23 633.86 1075.4 636.029C1077.57 638.198 1080.51 639.417 1083.58 639.417C1086.64 639.417 1089.59 638.198 1091.76 636.029C1093.93 633.86 1095.14 630.918 1095.14 627.85ZM568.717 911.093C568.717 908.018 567.496 905.069 565.321 902.894C563.146 900.72 560.197 899.498 557.122 899.498C555.599 899.498 554.091 899.798 552.684 900.381C551.278 900.963 549.999 901.817 548.923 902.894C547.846 903.971 546.992 905.249 546.409 906.656C545.826 908.063 545.526 909.571 545.526 911.093C545.526 912.616 545.826 914.124 546.409 915.531C546.992 916.938 547.846 918.216 548.923 919.292C549.999 920.369 551.278 921.223 552.684 921.806C554.091 922.389 555.599 922.689 557.122 922.689C560.197 922.689 563.146 921.467 565.321 919.292C567.496 917.118 568.717 914.169 568.717 911.093ZM1094.97 907.999C1094.59 906.553 1093.93 905.198 1093.01 904.01C1092.09 902.823 1090.94 901.826 1089.63 901.078C1088.31 900.329 1086.85 899.843 1085.33 899.648C1083.82 899.452 1082.27 899.551 1080.78 899.938C1077.78 900.72 1075.2 902.63 1073.62 905.248C1072.03 907.865 1071.57 910.976 1072.33 913.896C1072.71 915.342 1073.37 916.697 1074.29 917.885C1075.21 919.073 1076.36 920.069 1077.67 920.817C1078.99 921.566 1080.45 922.052 1081.97 922.248C1083.49 922.443 1085.03 922.344 1086.52 921.957C1089.52 921.175 1092.1 919.265 1093.68 916.648C1095.27 914.03 1095.73 910.919 1094.97 907.999Z" fill="black"/>
<path d="M695.917 506.302C695.917 512.92 693.288 519.267 688.609 523.947C683.929 528.627 677.582 531.256 670.964 531.256C664.346 531.256 657.999 528.627 653.319 523.947C648.639 519.267 646.01 512.92 646.01 506.302C646.01 499.684 648.639 493.337 653.319 488.658C657.999 483.978 664.346 481.349 670.964 481.349C677.582 481.349 683.929 483.978 688.609 488.658C693.288 493.337 695.917 499.684 695.917 506.302ZM682.53 506.142C682.53 503.063 681.307 500.11 679.13 497.933C676.952 495.755 673.999 494.532 670.92 494.532C667.841 494.532 664.888 495.755 662.711 497.933C660.533 500.11 659.31 503.063 659.31 506.142C659.31 509.221 660.533 512.174 662.711 514.352C664.888 516.529 667.841 517.752 670.92 517.752C673.999 517.752 676.952 516.529 679.13 514.352C681.307 512.174 682.53 509.221 682.53 506.142Z" fill="black"/>
<path d="M795.556 736.609C795.318 736.581 795.092 736.488 794.904 736.34C794.715 736.192 794.572 735.994 794.489 735.77C794.406 735.545 794.387 735.301 794.434 735.066C794.481 734.831 794.592 734.614 794.755 734.438C815.207 712.558 791.084 692.674 797.261 669.032C799.562 660.204 804.831 654.115 813.066 650.765C822.345 646.977 834.669 643.627 829.877 630.05C829.822 629.904 829.818 629.744 829.867 629.595C829.916 629.447 830.014 629.32 830.145 629.235C830.275 629.15 830.431 629.112 830.587 629.128C830.742 629.144 830.887 629.212 830.998 629.322C842.288 639.927 843.031 655.047 825.973 660.452C802.855 667.793 811.158 687.678 815.47 704.197C818.937 717.526 813.343 738.575 795.556 736.609Z" fill="black"/>
<path d="M880.277 660.757C886.125 660.737 890.861 659.123 890.854 657.151C890.847 655.18 886.101 653.599 880.252 653.62C874.403 653.64 869.667 655.254 869.674 657.225C869.681 659.196 874.428 660.778 880.277 660.757Z" fill="black"/>
<path d="M862.041 663.919C861.924 662.277 862.468 662.015 863.672 663.132C871.83 670.721 873.753 684.691 861.604 689.892C853.257 693.461 843.701 691.931 843.992 705.056C844.254 716.855 845.915 730.825 840.117 738.531C840.036 738.635 839.928 738.715 839.804 738.761C839.681 738.807 839.547 738.817 839.419 738.792C839.291 738.766 839.174 738.704 839.081 738.614C838.988 738.524 838.923 738.41 838.894 738.284C835.776 725.202 829.818 709.441 831.683 696.389C833.781 681.647 844.997 680.059 856.301 675.179C860.526 673.363 862.439 669.609 862.041 663.919Z" fill="black"/>
<path d="M752.795 672.28C758.556 672.29 763.228 670.635 763.232 668.584C763.235 666.532 758.569 664.861 752.808 664.851C747.048 664.841 742.375 666.496 742.372 668.547C742.368 670.599 747.035 672.27 752.795 672.28Z" fill="black"/>
<path d="M783.466 694.436C792.264 701.006 797.45 715.646 786.102 723.207C781.077 726.557 772.307 726.717 765.752 727.81C760.668 728.669 757.755 731.991 754.987 735.851C754.824 736.072 754.6 736.24 754.342 736.334C754.084 736.429 753.805 736.445 753.54 736.381C753.274 736.317 753.034 736.175 752.851 735.975C752.668 735.774 752.549 735.523 752.511 735.254C751.394 727.766 753.239 722.007 758.046 717.977C763.086 713.738 772.22 713.17 777.275 710.387C781.849 707.882 783.679 702.701 782.766 694.844C782.679 694.165 782.912 694.029 783.466 694.436Z" fill="black"/>
<path d="M901.477 702.826C907.38 702.682 912.125 700.915 912.076 698.88C912.026 696.846 907.2 695.313 901.296 695.457C895.393 695.602 890.648 697.368 890.697 699.403C890.747 701.438 895.573 702.97 901.477 702.826Z" fill="black"/>
<path d="M717.375 714.568C723.215 714.476 727.923 712.726 727.891 710.659C727.858 708.591 723.098 706.99 717.258 707.081C711.418 707.173 706.71 708.923 706.742 710.991C706.774 713.058 711.535 714.66 717.375 714.568Z" fill="black"/>
<path d="M528.716 726.543C528.23 723.115 529.095 720.196 531.309 717.788C531.506 717.572 531.746 717.401 532.015 717.286C532.284 717.17 532.574 717.113 532.868 717.118C538.898 717.191 538.359 722.537 538.942 727.446C539 727.931 539.258 728.252 539.714 728.407C545.463 730.32 551.149 732.36 556.772 734.525C559.846 735.705 563.138 729.602 564.668 727.154C567.173 723.134 572.447 725.232 573.685 728.859C575.2 733.244 568.805 739.726 565.731 742.173C556.656 749.457 541.448 737.483 530.377 738.182C520.034 738.852 506.428 747.155 503.792 757.804C503.733 758.029 503.601 758.229 503.417 758.372C503.232 758.514 503.005 758.591 502.772 758.59H492.619C491.968 758.59 491.754 758.284 491.978 757.673C497.97 741.192 509.725 731.486 527.245 728.553C528.391 728.359 528.881 727.689 528.716 726.543Z" fill="black"/>
<path d="M1084.22 732.879C1084.52 733.32 1084.95 733.653 1085.45 733.829C1085.95 734.005 1086.5 734.014 1087 733.855L1104.41 728.378C1104.86 728.232 1105.09 727.926 1105.09 727.46C1105.11 723.775 1105.76 714.088 1112.51 717.86C1112.97 718.123 1113.3 718.501 1113.5 718.997C1114.59 721.832 1114.94 724.78 1114.56 727.839C1114.5 728.315 1114.71 728.587 1115.17 728.655C1132.35 731.306 1144.54 741.474 1150.8 757.672C1150.88 757.874 1150.91 758.092 1150.88 758.307C1150.85 758.521 1150.77 758.725 1150.65 758.9C1150.52 759.074 1150.35 759.213 1150.15 759.305C1149.95 759.396 1149.74 759.435 1149.52 759.42L1140.45 758.838C1140.21 758.825 1139.99 758.747 1139.79 758.61C1139.6 758.473 1139.45 758.285 1139.35 758.066C1133.27 743.571 1117.53 734.744 1102 739.536C1096.83 741.129 1091.64 742.678 1086.45 744.183C1080.52 745.902 1066.78 731.583 1072 726.207C1077.36 720.672 1081.86 729.354 1084.22 732.879Z" fill="black"/>
<path d="M700.433 990.848C687.468 987.512 671.066 982.982 660.082 974.926C652.789 969.575 651.279 962.792 655.552 954.576C665.283 935.901 689.056 902.397 712.509 902.12C727.018 901.936 741.726 902.052 756.633 902.47C756.993 902.483 757.35 902.397 757.666 902.22C757.982 902.042 758.244 901.781 758.425 901.465L767.18 886.023C767.23 885.932 767.261 885.831 767.272 885.728C767.282 885.624 767.271 885.52 767.24 885.421C767.208 885.323 767.157 885.232 767.089 885.155C767.021 885.078 766.938 885.017 766.845 884.975C720.288 862.905 689.435 818.039 689.173 766.194C689.085 748.495 716.37 746.864 729.611 746.5C783.101 744.97 837 746.106 890.548 746.252C904.446 746.296 954.221 744.285 951.614 766.777C950.448 776.887 949.749 787.622 947.156 796.989C936.27 836.223 912.496 865.285 875.836 884.173C875.428 884.377 875.34 884.678 875.574 885.077L885.333 901.785C885.625 902.271 886.047 902.513 886.601 902.513C900.294 902.358 913.914 902.309 927.462 902.368C938.023 902.411 943.82 904.815 951.41 911.239C964.287 922.116 975.018 934.299 983.603 947.788C987.245 953.518 989.26 958.033 989.649 961.335C991.775 979.617 954.411 987.687 941.635 990.95C941.442 991.002 941.264 991.097 941.114 991.229C940.964 991.36 940.847 991.525 940.772 991.709C940.697 991.893 940.666 992.091 940.682 992.288C940.698 992.485 940.76 992.676 940.863 992.844L953.668 1013.91C954.163 1014.71 954.848 1014.93 955.722 1014.56C965.695 1010.37 974.669 1010.79 982.642 1015.82C998.301 1025.69 995.781 1049.03 980.515 1057.81C970.653 1063.47 958.781 1061.76 950.478 1054.13C942.747 1047 940.956 1037.56 945.102 1025.81C945.258 1025.37 945.214 1024.95 944.971 1024.56L927.52 996.078C927.279 995.678 926.925 995.359 926.502 995.162C926.079 994.965 925.606 994.898 925.145 994.971L897.541 999.297C897.113 999.365 896.968 999.603 897.104 1000.01C899.221 1006.37 901.105 1012.7 902.756 1019.01C904.868 1027.02 894.656 1029.52 891.714 1021.6C889.247 1014.94 886.912 1008.23 884.707 1001.48C884.649 1001.3 884.533 1001.15 884.377 1001.04C884.222 1000.94 884.035 1000.89 883.848 1000.9L865.085 1002.28C864.967 1002.29 864.851 1002.33 864.746 1002.38C864.641 1002.44 864.549 1002.51 864.475 1002.6C864.401 1002.69 864.347 1002.8 864.317 1002.91C864.287 1003.03 864.28 1003.14 864.299 1003.26C865.396 1010.16 866.59 1016.95 867.882 1023.62C869.761 1033.21 858.996 1037.42 856.549 1028.4C854.374 1020.37 852.723 1012.22 851.596 1003.96C851.528 1003.44 851.232 1003.19 850.707 1003.2L827.633 1003.75C827.206 1003.76 826.992 1003.99 826.992 1004.42L827.371 1048.48C827.371 1048.86 827.555 1049.13 827.924 1049.26C842.375 1054.65 849.702 1069.32 843.205 1083.42C833.475 1104.57 802.563 1101.95 795.6 1079.9C791.507 1066.95 799.606 1053.92 812.279 1049.19C812.514 1049.1 812.717 1048.94 812.86 1048.73C813.003 1048.53 813.08 1048.28 813.081 1048.02V1004.41C813.081 1003.98 812.852 1003.77 812.396 1003.77L790.851 1003.49C790.482 1003.49 790.259 1003.67 790.181 1004.03C788.501 1012.21 786.831 1020.33 785.17 1028.39C783.509 1036.47 772.424 1034.58 773.691 1024.98C774.643 1017.83 775.905 1010.66 777.479 1003.46C777.506 1003.34 777.507 1003.21 777.481 1003.09C777.455 1002.97 777.403 1002.85 777.329 1002.75C777.255 1002.64 777.159 1002.56 777.049 1002.5C776.94 1002.44 776.818 1002.4 776.692 1002.39L756.618 1000.7C756.396 1000.68 756.175 1000.74 755.993 1000.87C755.81 1001 755.676 1001.18 755.613 1001.39C753.652 1008.21 751.583 1014.93 749.408 1021.54C746.786 1029.49 735.991 1027.59 737.739 1020.08C739.342 1013.23 741.376 1006.59 743.843 1000.16C743.872 1000.08 743.884 1000.01 743.878 999.929C743.873 999.852 743.85 999.776 743.811 999.708C743.772 999.64 743.718 999.581 743.653 999.535C743.588 999.489 743.514 999.458 743.435 999.443L715.583 994.738C715.126 994.66 714.777 994.825 714.534 995.233L694.868 1027.95C694.795 1028.07 694.75 1028.21 694.735 1028.36C694.719 1028.5 694.735 1028.64 694.781 1028.78C700.899 1047.16 685.56 1063.73 667.482 1061.11C648.705 1058.38 639.368 1036.01 651.633 1020.99C660.155 1010.56 674.067 1008.75 685.531 1015.92C686.152 1016.31 686.648 1016.19 687.017 1015.55L700.943 992.086C701.322 991.446 701.152 991.033 700.433 990.848ZM706.289 765.524C716.068 768.263 725.809 769.632 735.511 769.632C792.721 769.632 849.926 769.603 907.126 769.545C916.75 769.535 926.029 768.297 934.964 765.83C935.123 765.79 935.266 765.699 935.369 765.57C935.472 765.442 935.531 765.283 935.536 765.118C935.541 764.953 935.492 764.792 935.396 764.657C935.301 764.523 935.164 764.423 935.007 764.373C921.125 759.566 911.336 759.814 893.214 759.712C870.023 759.595 846.833 759.663 823.642 759.916C792.847 760.251 762.096 759.479 731.301 759.916C722.488 760.047 714.403 761.678 706.289 763.849C704.25 764.403 704.25 764.961 706.289 765.524ZM703.769 779.742C710.222 830.989 748.956 871.296 799.388 880.561C864.852 892.579 927.505 846.43 936.493 780.951C936.551 780.465 936.343 780.261 935.867 780.339C925.262 781.932 912.287 782.767 896.943 782.844C855.058 783.058 813.178 782.99 771.302 782.641C754.725 782.509 738.439 783.282 719.21 781.898C714.563 781.563 709.538 779.815 704.57 778.984C704.465 778.965 704.356 778.971 704.253 779.002C704.15 779.032 704.056 779.087 703.978 779.16C703.9 779.234 703.841 779.325 703.804 779.426C703.768 779.527 703.756 779.635 703.769 779.742ZM771.404 907.189C772.443 907.529 773.39 907.787 774.245 907.961C803.573 914.177 833.033 914.779 862.623 909.768C866.061 909.185 869.387 908.262 872.602 907C873.039 906.825 873.141 906.534 872.908 906.126L863.527 889.884C863.423 889.705 863.263 889.565 863.073 889.489C862.882 889.412 862.673 889.402 862.478 889.461C835.208 897.91 807.851 898.221 780.407 890.393C780.179 890.327 779.935 890.34 779.715 890.43C779.496 890.52 779.313 890.682 779.197 890.889L770.952 906.068C770.898 906.169 770.866 906.282 770.86 906.397C770.853 906.512 770.872 906.627 770.915 906.734C770.959 906.841 771.025 906.938 771.109 907.016C771.194 907.095 771.294 907.154 771.404 907.189ZM670.6 964.802C674.649 967.327 677.99 969.085 680.622 970.076C712.553 982.108 746.159 986.93 780.669 988.78C831.056 991.475 882.07 990.324 930.929 979.704C941.606 977.388 969.604 970.425 974.033 963.608C979.437 955.275 942.072 915.915 931.803 915.915C917.255 915.905 902.707 915.91 888.159 915.93C883.527 915.93 879.813 919.091 875.705 920.227C856.476 925.486 836.155 926.535 815.644 926.229C798.339 925.966 774.041 924.918 758.454 915.973C758.036 915.74 757.59 915.624 757.114 915.624C741.546 915.624 725.979 915.76 710.412 916.032C698.714 916.236 678.976 941.335 672.435 951.182C669.798 955.144 665.02 961.335 670.6 964.802ZM979.641 1036.24C979.641 1033.15 978.413 1030.18 976.228 1028C974.042 1025.81 971.078 1024.59 967.987 1024.59C964.897 1024.59 961.932 1025.81 959.747 1028C957.561 1030.18 956.334 1033.15 956.334 1036.24C956.334 1039.33 957.561 1042.29 959.747 1044.48C961.932 1046.67 964.897 1047.89 967.987 1047.89C971.078 1047.89 974.042 1046.67 976.228 1044.48C978.413 1042.29 979.641 1039.33 979.641 1036.24ZM682.865 1036.49C682.865 1033.38 681.63 1030.39 679.431 1028.2C677.231 1026 674.249 1024.76 671.139 1024.76C668.029 1024.76 665.046 1026 662.847 1028.2C660.648 1030.39 659.412 1033.38 659.412 1036.49C659.412 1039.6 660.648 1042.58 662.847 1044.78C665.046 1046.98 668.029 1048.21 671.139 1048.21C674.249 1048.21 677.231 1046.98 679.431 1044.78C681.63 1042.58 682.865 1039.6 682.865 1036.49ZM831.712 1073.15C831.712 1070.09 830.495 1067.15 828.328 1064.98C826.162 1062.82 823.224 1061.6 820.16 1061.6C817.096 1061.6 814.158 1062.82 811.992 1064.98C809.826 1067.15 808.608 1070.09 808.608 1073.15C808.608 1076.22 809.826 1079.15 811.992 1081.32C814.158 1083.49 817.096 1084.7 820.16 1084.7C823.224 1084.7 826.162 1083.49 828.328 1081.32C830.495 1079.15 831.712 1076.22 831.712 1073.15Z" fill="black"/>
<path d="M446.499 779.334C449.701 779.334 452.297 776.738 452.297 773.536C452.297 770.334 449.701 767.738 446.499 767.738C443.297 767.738 440.702 770.334 440.702 773.536C440.702 776.738 443.297 779.334 446.499 779.334Z" fill="black"/>
<path d="M1220.16 779.436C1223.38 779.436 1226 776.82 1226 773.594C1226 770.368 1223.38 767.753 1220.16 767.753C1216.93 767.753 1214.32 770.368 1214.32 773.594C1214.32 776.82 1216.93 779.436 1220.16 779.436Z" fill="black"/>
<path d="M419.696 779.378C422.841 779.378 425.391 776.827 425.391 773.682C425.391 770.536 422.841 767.986 419.696 767.986C416.55 767.986 414 770.536 414 773.682C414 776.827 416.55 779.378 419.696 779.378Z" fill="black"/>
<path d="M432.981 779.232C436.103 779.232 438.633 776.701 438.633 773.58C438.633 770.458 436.103 767.928 432.981 767.928C429.859 767.928 427.329 770.458 427.329 773.58C427.329 776.701 429.859 779.232 432.981 779.232Z" fill="black"/>
<path d="M1193.27 779.465C1196.47 779.465 1199.07 776.869 1199.07 773.667C1199.07 770.465 1196.47 767.869 1193.27 767.869C1190.07 767.869 1187.47 770.465 1187.47 773.667C1187.47 776.869 1190.07 779.465 1193.27 779.465Z" fill="black"/>
<path d="M1206.87 779.538C1210.08 779.538 1212.69 776.936 1212.69 773.726C1212.69 770.516 1210.08 767.913 1206.87 767.913C1203.66 767.913 1201.06 770.516 1201.06 773.726C1201.06 776.936 1203.66 779.538 1206.87 779.538Z" fill="black"/>
<path d="M384.523 353.5C366.323 353.733 350.689 350.7 337.623 344.4C324.556 338.1 311.956 328.883 299.823 316.75C299.356 316.283 298.889 315.7 298.423 315C297.956 314.067 297.723 312.9 297.723 311.5C297.723 309.633 298.539 307.883 300.173 306.25C301.806 304.383 303.556 303.45 305.423 303.45C307.523 303.45 309.506 304.5 311.373 306.6C320.706 317.333 331.556 325.5 343.923 331.1C356.523 336.7 369.589 339.5 383.123 339.5C395.023 339.5 405.639 337.633 414.973 333.9C424.306 329.933 431.656 324.45 437.023 317.45C442.389 310.217 445.073 301.817 445.073 292.25C444.839 280.35 441.573 270.783 435.273 263.55C428.973 256.317 420.806 250.367 410.773 245.7C400.973 241.033 390.589 236.717 379.623 232.75C370.989 229.483 362.473 226.1 354.073 222.6C345.673 219.1 338.089 214.9 331.323 210C324.556 204.867 319.189 198.567 315.223 191.1C311.256 183.4 309.273 173.95 309.273 162.75C309.273 151.317 312.306 141.05 318.373 131.95C324.673 122.617 333.539 115.267 344.973 109.9C356.639 104.3 370.406 101.5 386.273 101.5C399.573 101.5 412.523 103.95 425.123 108.85C437.723 113.517 447.639 120.633 454.873 130.2C457.206 133.467 458.373 135.917 458.373 137.55C458.373 139.183 457.439 140.817 455.573 142.45C453.939 144.083 452.073 144.9 449.973 144.9C448.106 144.9 446.589 144.2 445.423 142.8C441.223 137.2 436.089 132.417 430.023 128.45C424.189 124.25 417.539 121.1 410.073 119C402.606 116.667 394.673 115.5 386.273 115.5C374.839 115.5 364.456 117.367 355.123 121.1C345.789 124.833 338.323 130.2 332.723 137.2C327.123 143.967 324.323 152.367 324.323 162.4C324.323 173.133 327.356 182 333.423 189C339.723 195.767 347.656 201.483 357.223 206.15C366.789 210.583 376.589 214.667 386.623 218.4C395.489 221.433 404.239 224.817 412.873 228.55C421.739 232.05 429.673 236.483 436.673 241.85C443.906 247.217 449.623 253.983 453.823 262.15C458.023 270.317 460.123 280.583 460.123 292.95C460.123 303.683 456.973 313.6 450.673 322.7C444.606 331.8 435.973 339.15 424.773 344.75C413.573 350.35 400.156 353.267 384.523 353.5ZM595.154 105C608.454 105 620.004 107.8 629.804 113.4C639.838 119 647.538 126.817 652.904 136.85C658.504 146.883 661.304 158.55 661.304 171.85C661.304 184.917 658.504 196.7 652.904 207.2C647.538 217.7 639.838 225.983 629.804 232.05C620.004 238.117 608.454 241.15 595.154 241.15H517.454L518.854 238.7V343C518.854 344.867 518.038 346.5 516.404 347.9C515.004 349.3 513.371 350 511.504 350C509.171 350 507.304 349.3 505.904 347.9C504.738 346.5 504.154 344.867 504.154 343V112C504.154 110.133 504.854 108.5 506.254 107.1C507.654 105.7 509.288 105 511.154 105H595.154ZM595.154 227.15C605.888 227.15 614.988 224.817 622.454 220.15C630.154 215.25 636.104 208.6 640.304 200.2C644.504 191.8 646.604 182.35 646.604 171.85C646.604 161.117 644.504 151.9 640.304 144.2C636.104 136.267 630.154 130.083 622.454 125.65C614.988 121.217 605.888 119 595.154 119H517.804L518.854 117.25V228.2L517.454 227.15H595.154ZM919.517 227.5C919.517 246.167 916.6 263.2 910.767 278.6C905.167 294 897.117 307.3 886.617 318.5C876.117 329.7 863.75 338.333 849.517 344.4C835.283 350.467 819.65 353.5 802.617 353.5C785.583 353.5 769.95 350.467 755.717 344.4C741.483 338.333 729.117 329.7 718.617 318.5C708.117 307.3 699.95 294 694.117 278.6C688.517 263.2 685.717 246.167 685.717 227.5C685.717 208.833 688.517 191.8 694.117 176.4C699.95 161 708.117 147.7 718.617 136.5C729.117 125.3 741.483 116.667 755.717 110.6C769.95 104.533 785.583 101.5 802.617 101.5C819.65 101.5 835.283 104.533 849.517 110.6C863.75 116.667 876.117 125.3 886.617 136.5C897.117 147.7 905.167 161 910.767 176.4C916.6 191.8 919.517 208.833 919.517 227.5ZM904.817 227.5C904.817 205.1 900.383 185.5 891.517 168.7C882.883 151.9 870.867 138.833 855.467 129.5C840.3 120.167 822.683 115.5 802.617 115.5C782.783 115.5 765.167 120.167 749.767 129.5C734.367 138.833 722.233 151.9 713.367 168.7C704.733 185.5 700.417 205.1 700.417 227.5C700.417 249.9 704.733 269.5 713.367 286.3C722.233 303.1 734.367 316.167 749.767 325.5C765.167 334.833 782.783 339.5 802.617 339.5C822.683 339.5 840.3 334.833 855.467 325.5C870.867 316.167 882.883 303.1 891.517 286.3C900.383 269.5 904.817 249.9 904.817 227.5ZM1140.22 351.75C1138.35 351.75 1136.72 350.933 1135.32 349.3L1029.62 218.4L1040.82 207.2L1146.52 339.5C1147.69 341.133 1148.27 342.767 1148.27 344.4C1148.27 347.2 1147.22 349.067 1145.12 350C1143.25 351.167 1141.62 351.75 1140.22 351.75ZM1133.92 106.4C1135.79 106.4 1137.42 107.1 1138.82 108.5C1140.22 109.9 1140.92 111.533 1140.92 113.4C1140.92 115.267 1140.22 116.9 1138.82 118.3L975.719 270.2L972.569 255.15L1129.02 108.5C1130.42 107.1 1132.05 106.4 1133.92 106.4ZM970.469 350C968.136 350 966.269 349.3 964.869 347.9C963.702 346.5 963.119 344.75 963.119 342.65V112.35C963.119 110.25 963.819 108.5 965.219 107.1C966.619 105.7 968.369 105 970.469 105C972.569 105 974.319 105.7 975.719 107.1C977.119 108.5 977.819 110.25 977.819 112.35V342.65C977.586 344.75 976.769 346.5 975.369 347.9C973.969 349.3 972.336 350 970.469 350ZM1199.94 105H1331.89C1333.76 105 1335.39 105.7 1336.79 107.1C1338.19 108.5 1338.89 110.133 1338.89 112C1338.89 114.1 1338.19 115.85 1336.79 117.25C1335.39 118.417 1333.76 119 1331.89 119H1204.14L1207.64 113.05V221.55L1203.44 216.65H1316.14C1318.01 216.65 1319.64 217.35 1321.04 218.75C1322.44 220.15 1323.14 221.783 1323.14 223.65C1323.14 225.75 1322.44 227.5 1321.04 228.9C1319.64 230.067 1318.01 230.65 1316.14 230.65H1204.14L1207.64 226.8V337.75L1206.24 336H1331.89C1333.76 336 1335.39 336.7 1336.79 338.1C1338.19 339.5 1338.89 341.133 1338.89 343C1338.89 345.1 1338.19 346.85 1336.79 348.25C1335.39 349.417 1333.76 350 1331.89 350H1199.94C1198.08 350 1196.44 349.3 1195.04 347.9C1193.64 346.5 1192.94 344.867 1192.94 343V112C1192.94 110.133 1193.64 108.5 1195.04 107.1C1196.44 105.7 1198.08 105 1199.94 105Z" fill="black"/>
<path d="M132.074 1203C149.107 1203 164.157 1206.27 177.224 1212.8C190.29 1219.1 201.14 1227.97 209.774 1239.4C218.64 1250.6 225.29 1263.67 229.724 1278.6C234.157 1293.3 236.374 1308.93 236.374 1325.5C236.374 1348.13 232.407 1368.78 224.474 1387.45C216.54 1405.88 204.874 1420.58 189.474 1431.55C174.074 1442.52 154.94 1448 132.074 1448H46.6736C41.7736 1448 37.5736 1446.37 34.0736 1443.1C30.5736 1439.6 28.8236 1435.28 28.8236 1430.15V1220.85C28.8236 1215.72 30.5736 1211.52 34.0736 1208.25C37.5736 1204.75 41.7736 1203 46.6736 1203H132.074ZM128.574 1414.4C145.14 1414.4 158.557 1410.32 168.824 1402.15C179.09 1393.98 186.557 1383.25 191.224 1369.95C196.124 1356.42 198.574 1341.6 198.574 1325.5C198.574 1313.6 197.174 1302.4 194.374 1291.9C191.807 1281.17 187.607 1271.72 181.774 1263.55C176.174 1255.15 168.94 1248.62 160.074 1243.95C151.44 1239.05 140.94 1236.6 128.574 1236.6H62.4236L65.5736 1233.45V1417.9L63.4736 1414.4H128.574ZM407.332 1201.95C411.766 1201.95 415.732 1203.7 419.232 1207.2C422.966 1210.47 424.832 1214.67 424.832 1219.8C424.832 1221.67 424.482 1223.53 423.782 1225.4C423.316 1227.03 422.499 1228.78 421.332 1230.65L341.182 1344.05L346.782 1323.4V1430.15C346.782 1435.28 345.032 1439.6 341.532 1443.1C338.032 1446.37 334.066 1448 329.632 1448C324.732 1448 320.532 1446.37 317.032 1443.1C313.766 1439.6 312.132 1435.28 312.132 1430.15V1326.2L314.582 1336.35L237.232 1233.1C235.366 1230.53 234.082 1228.2 233.382 1226.1C232.682 1223.77 232.332 1221.55 232.332 1219.45C232.332 1214.32 234.316 1210.12 238.282 1206.85C242.482 1203.58 246.682 1201.95 250.882 1201.95C256.482 1201.95 261.266 1204.63 265.232 1210L335.232 1305.9L326.832 1304.85L392.632 1210.35C396.599 1204.75 401.499 1201.95 407.332 1201.95ZM626.777 1203C631.443 1203 635.177 1204.63 637.977 1207.9C641.01 1210.93 642.527 1214.78 642.527 1219.45V1430.15C642.527 1435.28 640.777 1439.6 637.277 1443.1C634.01 1446.37 629.81 1448 624.677 1448C622.343 1448 619.777 1447.53 616.977 1446.6C614.41 1445.67 612.427 1444.38 611.027 1442.75L467.177 1256.2L475.227 1251.65V1431.9C475.227 1436.33 473.71 1440.18 470.677 1443.45C467.643 1446.48 463.793 1448 459.127 1448C454.227 1448 450.26 1446.48 447.227 1443.45C444.427 1440.18 443.027 1436.33 443.027 1431.9V1220.85C443.027 1215.48 444.777 1211.17 448.277 1207.9C451.777 1204.63 455.977 1203 460.877 1203C463.443 1203 466.127 1203.58 468.927 1204.75C471.96 1205.68 474.177 1207.2 475.577 1209.3L615.927 1392L610.677 1396.9V1219.45C610.677 1214.78 612.193 1210.93 615.227 1207.9C618.26 1204.63 622.11 1203 626.777 1203ZM771.466 1248.5L692.716 1437.5C691.316 1441.23 689.216 1444.15 686.416 1446.25C683.616 1448.35 680.466 1449.4 676.966 1449.4C671.833 1449.4 667.983 1448 665.416 1445.2C662.85 1442.17 661.45 1438.43 661.216 1434C661.216 1432.37 661.566 1430.5 662.266 1428.4L751.166 1213.5C752.8 1209.53 755.133 1206.5 758.166 1204.4C761.433 1202.3 764.933 1201.37 768.666 1201.6C772.166 1201.6 775.433 1202.65 778.466 1204.75C781.5 1206.85 783.716 1209.77 785.116 1213.5L872.966 1425.25C873.9 1427.58 874.366 1429.92 874.366 1432.25C874.366 1437.38 872.616 1441.58 869.116 1444.85C865.85 1447.88 862.116 1449.4 857.916 1449.4C854.416 1449.4 851.15 1448.35 848.116 1446.25C845.316 1443.92 843.216 1441 841.816 1437.5L762.366 1249.55L771.466 1248.5ZM706.716 1387.8L722.466 1354.2H821.516L827.466 1387.8H706.716ZM910.977 1202.65C913.777 1202.65 916.693 1203.35 919.727 1204.75C922.76 1206.15 925.093 1208.13 926.727 1210.7L1015.63 1346.15L1000.58 1345.45L1091.23 1210.7C1094.96 1205.33 1099.74 1202.65 1105.58 1202.65C1110.24 1202.65 1114.33 1204.4 1117.83 1207.9C1121.56 1211.17 1123.43 1215.37 1123.43 1220.5V1430.15C1123.43 1435.28 1121.79 1439.6 1118.53 1443.1C1115.26 1446.37 1110.94 1448 1105.58 1448C1099.98 1448 1095.43 1446.37 1091.93 1443.1C1088.66 1439.6 1087.03 1435.28 1087.03 1430.15V1252.7L1098.23 1255.15L1021.23 1372.4C1019.59 1374.5 1017.49 1376.37 1014.93 1378C1012.36 1379.4 1009.68 1379.98 1006.88 1379.75C1004.31 1379.98 1001.63 1379.4 998.827 1378C996.26 1376.37 994.16 1374.5 992.527 1372.4L918.327 1256.9L926.727 1242.9V1430.15C926.727 1435.28 925.093 1439.6 921.827 1443.1C918.793 1446.37 914.71 1448 909.577 1448C904.677 1448 900.593 1446.37 897.327 1443.1C894.293 1439.6 892.777 1435.28 892.777 1430.15V1220.5C892.777 1215.6 894.527 1211.4 898.027 1207.9C901.76 1204.4 906.077 1202.65 910.977 1202.65ZM1201.57 1430.15C1201.34 1435.28 1199.35 1439.6 1195.62 1443.1C1192.12 1446.37 1187.92 1448 1183.02 1448C1177.65 1448 1173.22 1446.37 1169.72 1443.1C1166.45 1439.6 1164.82 1435.28 1164.82 1430.15V1220.85C1164.82 1215.72 1166.57 1211.52 1170.07 1208.25C1173.57 1204.75 1178.12 1203 1183.72 1203C1188.39 1203 1192.47 1204.75 1195.97 1208.25C1199.7 1211.52 1201.57 1215.72 1201.57 1220.85V1430.15ZM1416.33 1217C1421.46 1219.57 1424.38 1223.53 1425.08 1228.9C1426.01 1234.27 1424.73 1239.17 1421.23 1243.6C1418.66 1247.1 1415.28 1249.08 1411.08 1249.55C1407.11 1250.02 1403.15 1249.2 1399.18 1247.1C1392.41 1243.6 1385.3 1240.8 1377.83 1238.7C1370.36 1236.6 1362.43 1235.55 1354.03 1235.55C1340.73 1235.55 1328.71 1237.77 1317.98 1242.2C1307.48 1246.4 1298.38 1252.58 1290.68 1260.75C1282.98 1268.68 1277.03 1278.13 1272.83 1289.1C1268.86 1300.07 1266.88 1312.2 1266.88 1325.5C1266.88 1340.2 1269.1 1353.27 1273.53 1364.7C1277.96 1375.9 1284.03 1385.47 1291.73 1393.4C1299.66 1401.1 1308.88 1406.93 1319.38 1410.9C1330.11 1414.63 1341.66 1416.5 1354.03 1416.5C1361.96 1416.5 1369.66 1415.57 1377.13 1413.7C1384.83 1411.83 1392.06 1409.03 1398.83 1405.3C1403.03 1403.2 1407.11 1402.5 1411.08 1403.2C1415.28 1403.67 1418.66 1405.65 1421.23 1409.15C1425.2 1414.05 1426.6 1419.07 1425.43 1424.2C1424.5 1429.1 1421.58 1432.83 1416.68 1435.4C1410.85 1438.67 1404.43 1441.47 1397.43 1443.8C1390.43 1446.13 1383.31 1448 1376.08 1449.4C1368.85 1450.8 1361.5 1451.5 1354.03 1451.5C1337.23 1451.5 1321.36 1448.7 1306.43 1443.1C1291.5 1437.5 1278.2 1429.33 1266.53 1418.6C1254.86 1407.87 1245.65 1394.68 1238.88 1379.05C1232.35 1363.42 1229.08 1345.57 1229.08 1325.5C1229.08 1307.53 1232.11 1290.97 1238.18 1275.8C1244.48 1260.4 1253.23 1247.22 1264.43 1236.25C1275.86 1225.05 1289.16 1216.42 1304.33 1210.35C1319.5 1204.05 1336.06 1200.9 1354.03 1200.9C1365.23 1200.9 1376.08 1202.3 1386.58 1205.1C1397.31 1207.9 1407.23 1211.87 1416.33 1217ZM1524.39 1451.5C1507.59 1451.5 1492.66 1449.17 1479.59 1444.5C1466.52 1439.83 1454.04 1432.13 1442.14 1421.4C1439.57 1419.53 1437.59 1417.32 1436.19 1414.75C1435.02 1411.95 1434.44 1409.15 1434.44 1406.35C1434.44 1401.92 1436.07 1397.95 1439.34 1394.45C1442.61 1390.95 1446.69 1389.2 1451.59 1389.2C1455.32 1389.2 1458.82 1390.48 1462.09 1393.05C1470.96 1401.22 1480.17 1407.4 1489.74 1411.6C1499.54 1415.8 1510.97 1417.9 1524.04 1417.9C1533.37 1417.9 1541.89 1416.38 1549.59 1413.35C1557.52 1410.32 1563.82 1406.23 1568.49 1401.1C1573.16 1395.97 1575.49 1390.02 1575.49 1383.25C1575.49 1374.85 1573.04 1367.97 1568.14 1362.6C1563.47 1357 1556.59 1352.45 1547.49 1348.95C1538.62 1345.22 1527.89 1342.07 1515.29 1339.5C1503.62 1337.4 1493.12 1334.48 1483.79 1330.75C1474.69 1327.02 1466.87 1322.35 1460.34 1316.75C1453.81 1310.92 1448.79 1304.03 1445.29 1296.1C1441.79 1288.17 1440.04 1278.95 1440.04 1268.45C1440.04 1254.22 1443.77 1241.97 1451.24 1231.7C1458.71 1221.43 1468.86 1213.5 1481.69 1207.9C1494.52 1202.3 1508.99 1199.5 1525.09 1199.5C1539.79 1199.5 1553.56 1201.83 1566.39 1206.5C1579.22 1210.93 1589.61 1217 1597.54 1224.7C1603.14 1229.6 1605.94 1234.85 1605.94 1240.45C1605.94 1244.65 1604.19 1248.62 1600.69 1252.35C1597.42 1255.85 1593.57 1257.6 1589.14 1257.6C1585.87 1257.6 1583.07 1256.67 1580.74 1254.8C1577.01 1250.83 1571.99 1247.33 1565.69 1244.3C1559.39 1241.03 1552.62 1238.35 1545.39 1236.25C1538.39 1234.15 1531.62 1233.1 1525.09 1233.1C1514.59 1233.1 1505.61 1234.62 1498.14 1237.65C1490.67 1240.45 1484.96 1244.42 1480.99 1249.55C1477.02 1254.45 1475.04 1260.28 1475.04 1267.05C1475.04 1274.98 1477.26 1281.52 1481.69 1286.65C1486.36 1291.78 1492.77 1295.98 1500.94 1299.25C1509.11 1302.28 1518.44 1305.08 1528.94 1307.65C1541.77 1310.45 1553.21 1313.6 1563.24 1317.1C1573.51 1320.6 1582.14 1325.15 1589.14 1330.75C1596.14 1336.12 1601.51 1342.88 1605.24 1351.05C1608.97 1359.22 1610.84 1369.37 1610.84 1381.5C1610.84 1395.5 1606.87 1407.75 1598.94 1418.25C1591.01 1428.75 1580.51 1436.92 1567.44 1442.75C1554.61 1448.58 1540.26 1451.5 1524.39 1451.5Z" fill="black"/>
</svg>
